<svg width="600" height="600" viewBox="0 0 600 600" fill="none" xmlns="http://www.w3.org/2000/svg">
<path d="M446.133 47.2266C445.664 50.3906 444.375 54.4922 443.32 56.4844C440.977 60.3516 434.062 64.4531 429.844 64.4531C423.984 64.4531 424.102 66.4453 429.961 67.2656C439.688 68.5547 446.25 76.2891 446.602 86.8359C446.602 88.3594 447.539 86.3672 448.711 82.3828C449.883 78.3984 451.523 74.1797 452.461 73.125C454.688 70.3125 462.773 66.9141 466.992 66.7969C471.445 66.6797 468.984 65.1562 462.773 63.9844C454.805 62.5781 450.586 57.7734 448.242 47.4609L446.953 41.6016L446.133 47.2266ZM194.883 61.4063C182.695 65.3906 170.977 75.8203 165.469 87.6563C162.656 93.5156 162.305 95.7422 162.305 106.641C162.305 118.008 162.539 119.531 165.938 126.563C170.508 136.289 178.828 144.609 188.672 149.297C195 152.344 198.047 152.93 206.484 153.281C227.227 154.219 242.812 144.727 251.719 125.742C254.531 119.648 254.883 117.539 254.883 106.641C254.883 95.2734 254.648 93.75 251.25 86.7188C246.68 76.875 238.242 68.5547 228.516 63.9844C222.07 61.0547 219.258 60.3516 210.352 60.1172C203.672 59.8828 197.93 60.3516 194.883 61.4063ZM233.32 128.203C219.961 141.797 199.453 142.266 185.273 129.492C182.695 127.031 180.469 124.688 180.469 124.102C180.469 123.516 193.477 123.047 209.414 123.047H238.359L233.32 128.203ZM501.094 84.2578C499.453 96.2109 494.883 101.367 483.164 104.297L475.195 106.289L481.055 107.109C492.891 108.867 498.516 114.375 501.094 126.563L502.383 133.008L503.789 126.563C506.367 114.141 510.703 109.805 522.773 107.344L530.273 105.82L525 104.883C517.266 103.594 510.234 100.313 507.891 96.6797C506.719 94.8047 504.961 89.8828 503.906 85.6641L501.914 77.9297L501.094 84.2578ZM405.703 232.5C396.445 283.711 389.18 326.133 389.531 326.719C389.883 327.305 392.695 328.242 395.625 328.711C401.719 329.531 403.125 328.594 403.125 323.086C403.125 321.328 403.359 319.922 403.594 319.922C403.711 319.922 409.453 322.5 416.133 325.664C422.812 328.711 430.43 332.109 433.008 332.93C437.227 334.453 435.234 334.57 410.039 334.922L382.266 335.156L381.797 339.258L381.328 343.359H420.938C449.297 343.359 460.547 343.008 460.547 342.07C460.547 341.25 461.719 341.016 463.828 341.484C465.586 341.953 483.398 342.773 503.32 343.359C538.711 344.297 548.789 345.469 554.883 348.984C556.641 350.039 523.711 350.273 416.25 350.391H275.273L275.625 355.313C275.977 360 276.211 360.352 279.844 360.703L283.594 361.055V379.688H294.141V556.641H308.203V522.656H344.531V508.594H308.203V379.688H553.008L549.609 387.188C541.875 404.063 539.648 418.008 537.891 458.203C537.07 478.125 536.25 486.797 534.375 493.828C530.977 507.305 529.805 508.594 522.07 508.594H515.742L515.391 513.516C515.156 517.734 514.57 518.672 512.461 518.906L509.766 519.258V419.531H351.562V555.469H509.766V534.492L516.211 532.617C520.078 531.563 524.531 529.102 527.227 526.758L531.68 522.656H558.984V556.641H573.047V379.688H584.766V360.938H600V350.391H583.594C570.469 350.391 567.188 350.039 567.188 348.75C567.188 345.938 562.734 341.367 557.578 338.906C548.32 334.688 540.352 333.75 504.492 332.813C485.156 332.344 466.172 331.289 462.188 330.469L455.039 329.062L436.758 283.242L418.594 237.305L427.266 189.844C432.07 163.828 435.586 142.148 435 141.68C434.531 141.211 431.602 140.391 428.32 140.039L422.461 139.219L405.703 232.5ZM430.43 290.156C438.047 309.375 444.023 325.195 443.789 325.43C442.969 326.133 426.914 320.039 415.664 314.883C407.93 311.367 405.469 309.609 405.82 308.203C406.055 307.266 408.398 294.961 410.859 280.898C413.32 266.953 415.664 255.469 416.133 255.469C416.484 255.469 422.93 271.055 430.43 290.156ZM413.437 318.633C418.711 321.328 434.648 327.422 446.484 331.289C447.656 331.758 447.773 332.109 446.836 332.461C445.078 333.164 424.336 325.313 413.672 319.805C408.867 317.344 405.352 315.352 405.82 315.234C406.289 315.234 409.687 316.758 413.437 318.633ZM496.875 336.328C515.859 336.797 534.141 337.617 537.305 338.086C546.797 339.375 555.82 342.188 558.984 344.766C561.328 346.641 561.445 346.875 559.57 346.172C543.516 340.195 530.742 338.672 496.992 338.672C474.023 338.672 459.844 337.266 457.617 334.922C456.797 333.984 457.266 333.867 459.375 334.453C461.016 334.922 477.891 335.742 496.875 336.328ZM558.984 447.07V508.594H548.32C538.828 508.594 537.773 508.359 538.359 506.484C540.469 499.219 541.641 486.914 542.578 461.719C543.633 432.422 544.336 425.977 547.852 412.5C549.727 405.352 557.578 385.547 558.516 385.547C558.75 385.547 558.984 413.203 558.984 447.07ZM428.906 473.438C428.906 477.305 428.672 480.469 428.438 480.469C427.734 480.469 421.875 469.922 421.875 468.633C421.875 467.813 424.336 466.875 427.5 466.523C428.438 466.406 428.906 468.516 428.906 473.438ZM437.109 467.578C438.633 468.516 438.516 469.453 436.055 474.023C434.531 476.953 432.773 479.297 432.305 479.297C431.133 479.297 430.898 468.398 432.07 467.227C433.125 466.055 435 466.289 437.109 467.578ZM423.164 478.359L425.391 482.578L420.117 479.648C413.555 476.016 412.969 475.078 415.547 472.148C417.656 469.805 417.773 469.805 419.297 471.914C420.117 473.086 421.875 476.016 423.164 478.359ZM446.836 475.898C446.25 476.25 443.32 478.125 440.039 480L434.18 483.398L436.055 480.469C437.109 478.828 438.867 475.781 439.922 473.555L442.031 469.688L444.844 472.383C446.367 473.789 447.305 475.43 446.836 475.898ZM422.578 485.273C423.047 485.977 420.586 486.328 416.367 486.094C409.336 485.742 408.867 485.273 410.742 479.648C411.211 478.242 421.055 482.93 422.578 485.273ZM450.703 482.227C451.172 483.867 451.172 485.508 450.82 485.859C450.586 486.211 447.188 486.328 443.438 486.094L436.523 485.742L441.797 482.578C448.359 478.594 449.766 478.477 450.703 482.227ZM422.578 489.492C421.758 490.898 411.445 496.289 410.977 495.703C410.742 495.352 410.156 493.711 409.688 491.836L408.984 488.672H416.016C420 488.672 422.93 489.023 422.578 489.492ZM450.586 491.836C450.117 493.711 449.531 495.352 449.297 495.586C448.828 496.172 439.805 491.484 437.812 489.727C437.109 489.141 439.805 488.672 444.023 488.672H451.406L450.586 491.836ZM422.227 498.047C420.469 501.211 418.359 503.906 417.773 503.906C416.133 503.906 413.672 501.445 413.672 499.805C413.672 498.867 423.516 492.422 425.156 492.188C425.391 492.188 424.102 494.766 422.227 498.047ZM445.664 498.281C447.773 499.805 447.773 499.922 445.43 502.031C442.5 504.609 441.562 504.023 437.93 497.461L435 492.188L439.219 494.414C441.562 495.703 444.492 497.461 445.664 498.281ZM428.672 508.008C427.852 508.828 421.875 507.07 421.875 506.016C421.875 505.43 423.281 502.5 425.156 499.453L428.32 493.945L428.672 500.859C428.906 504.609 428.906 507.891 428.672 508.008ZM436.172 500.742C437.461 503.438 438.516 505.898 438.398 506.25C438.281 506.602 436.992 507.188 435.469 507.539C433.008 508.242 432.656 507.891 431.953 504.023C430.195 493.477 431.719 492.188 436.172 500.742ZM523.242 524.531C520.312 526.875 513.867 529.688 511.523 529.688C509.414 529.688 509.062 524.297 511.289 523.477C511.992 523.125 515.625 522.773 519.141 522.773C525.234 522.773 525.469 522.891 523.242 524.531ZM475.312 151.992C473.789 160.43 467.109 166.289 458.555 166.523C455.859 166.641 456.328 166.875 460.547 168.047C470.859 170.859 472.734 172.617 474.961 181.641L476.602 187.969L477.422 182.461C478.594 174.844 482.461 170.508 490.195 168.633C493.828 167.695 495.352 166.992 493.945 166.758C483.398 164.883 479.18 161.016 477.188 151.523L476.133 147.07L475.312 151.992Z" fill="#00B589"/>
<path d="M154.453 168.633C141.211 173.906 131.016 183.984 122.813 199.922C114.844 215.508 109.336 235.078 106.055 260.273C105.352 266.25 103.945 267.188 96.4453 267.188C93.2813 267.188 92.461 266.719 91.875 263.906C89.2969 252.188 89.0625 251.953 85.6641 251.953C81.4453 251.953 80.625 254.063 81.5625 261.211L82.2656 266.719L76.0547 266.602C69.961 266.602 69.7266 266.719 67.0313 271.641C63.1641 278.672 62.1094 292.383 65.1563 296.25C69.7266 301.758 99.0235 302.695 115.078 297.656C124.336 294.844 133.477 287.227 136.406 280.195C137.344 277.617 138.75 270.938 139.453 265.195C141.797 246.328 148.359 220.313 151.172 218.555C151.875 218.086 152.344 233.203 152.344 260.391V302.93L142.852 418.594C132.422 546.563 132.539 540 140.391 548.672C150.469 559.805 165.352 560.977 176.719 551.367C185.039 544.336 184.57 547.969 192.773 445.547C196.992 394.219 200.625 349.922 201.094 347.109L201.68 342.188H208.594C214.922 342.188 215.625 342.422 216.094 344.766C216.445 346.289 220.078 390.352 224.297 442.852C231.211 527.813 232.266 538.828 234.492 543.398C243.75 562.5 270.82 562.383 280.547 543.281L284.063 536.484L275.039 424.453L265.898 312.305L266.016 265.43L266.133 218.555L268.477 223.828C271.758 231.094 275.039 245.273 277.148 261.328C279.492 278.672 280.547 281.719 286.055 287.695C295.781 298.242 314.648 302.813 338.203 300.352C347.93 299.297 351.211 298.477 352.383 296.953C354.375 294.141 354.258 283.008 352.148 275.742C349.805 267.656 347.109 265.547 340.43 266.25L335.156 266.836L335.508 259.688C335.742 253.008 335.625 252.539 332.93 252.188C329.18 251.602 327.773 253.359 326.367 260.508C325.078 267.188 323.438 268.125 315.703 266.719C312.07 266.016 311.836 265.664 311.133 259.219C308.555 236.719 300.586 209.648 292.734 196.289C286.172 185.391 276.914 175.781 268.008 170.977L260.742 166.992L210.352 166.758C163.711 166.523 159.609 166.641 154.453 168.633Z" fill="#00B589"/>
<path d="M6.09377 262.148C0.703146 266.953 -0.351542 282.422 3.51565 301.172C5.74221 311.953 5.50783 313.945 2.1094 314.062C-1.40623 314.062 1.52346 323.32 22.1485 378.281C34.336 410.742 45.1172 438.516 46.1719 440.039C50.1563 446.016 67.7344 452.461 87.6563 454.922C95.0391 455.859 98.4375 456.797 98.4375 457.852C98.4375 458.906 100.078 459.375 103.125 459.375H107.813L107.578 481.875L107.227 504.375L78.5156 513.281C62.6953 518.086 48.8672 522.422 47.8125 522.891C46.4063 523.477 45.7031 525 45.7031 527.227C45.7031 529.453 44.6485 531.914 42.7735 533.672C35.7422 540.703 41.3672 553.125 51.5625 553.125C61.875 553.125 67.0313 540.469 59.7656 533.203C58.0078 531.445 57.7735 530.625 58.8281 530.273C62.3438 528.984 106.406 515.625 107.109 515.625C107.461 515.625 107.813 518.906 107.813 523.008C107.813 529.336 107.344 530.859 105 533.203C97.0313 540.586 102.539 553.125 113.672 553.125C117.891 553.125 123.75 548.32 124.57 544.102C125.273 540.352 123.164 534.609 120.352 532.148C118.828 530.977 118.359 528.633 118.359 523.008C118.359 514.57 117.656 515.156 126.328 517.5C128.672 518.203 128.906 517.852 128.906 512.93C128.906 507.773 128.789 507.539 123.984 506.016L118.945 504.258L118.594 481.875L118.359 459.375H123.047C126.445 459.375 127.734 458.906 127.734 457.617C127.734 456.562 128.789 455.859 130.547 455.859C133.125 455.859 133.359 455.273 134.063 447.891C134.531 443.555 135.117 436.992 135.469 433.359L136.172 426.68L124.57 426.328C107.813 425.859 69.7266 427.266 61.0547 428.906C56.9531 429.609 53.4375 429.961 53.086 429.727C52.6172 429.141 39.7266 395.391 32.9297 376.758L30.3516 369.727L33.6328 373.828C42.8906 385.781 52.9688 392.227 56.9531 388.945C59.5313 386.836 58.3594 377.813 53.3203 359.414C42.1875 318.984 16.1719 260.156 9.37502 260.156C8.90627 260.156 7.38283 261.094 6.09377 262.148ZM310.547 339.258V343.359H366.797V335.156H310.547V339.258Z" fill="#00B589"/>
</svg>
