<svg width="35" height="35" viewBox="0 0 35 35" xmlns="http://www.w3.org/2000/svg"><path d="M23.009 0H11.992a3.971 3.971 0 0 0-4.001 3.95v27.1A3.971 3.971 0 0 0 11.992 35h11.016a3.971 3.971 0 0 0 4.001-3.95V3.95A3.971 3.971 0 0 0 23.008 0Zm2.739 31.05a2.717 2.717 0 0 1-2.738 2.701H11.99a2.717 2.717 0 0 1-2.739-2.7V3.949a2.717 2.717 0 0 1 2.738-2.7h11.019a2.717 2.717 0 0 1 2.739 2.7zm-8.111-3.727h-.548a.76.76 0 0 0-.76.76v.534a.76.76 0 0 0 .76.76h.548a.76.76 0 0 0 .76-.76v-.533a.76.76 0 0 0-.76-.76Zm-5.82-12.974H23.23V4.976H11.816Zm.95-.935v-1.719h9.512v1.72zm0-2.655V8.568h9.512v2.19Zm9.512-4.847v1.72h-9.512v-1.72Z" fill="#00b589" fill-rule="evenodd" style="stroke-width:.760857"/></svg>