<svg xmlns="http://www.w3.org/2000/svg" width="35" height="35" viewBox="0 0 35 35"><path d="M29.6 0H5.4A5.48 5.48 0 0 0 0 5.53v23.94A5.48 5.48 0 0 0 5.4 35h24.2a5.48 5.48 0 0 0 5.4-5.53V5.53A5.48 5.48 0 0 0 29.6 0zm3.6 29.47a3.65 3.65 0 0 1-3.6 3.69H5.4a3.65 3.65 0 0 1-3.6-3.69V5.53a3.65 3.65 0 0 1 3.6-3.69h24.2a3.65 3.65 0 0 1 3.6 3.69v23.94zM17.5 5.85a11.84 11.84 0 1 0 11.67 11.84A11.75 11.75 0 0 0 17.5 5.85zM27.8 17.5h-2.57a7.79 7.79 0 0 0-7.28-7.64V7.25A10.4 10.4 0 0 1 27.8 17.5zm-10.75.92v1.94a2.68 2.68 0 0 1-2.13-1.94h2.13zm-2.22-.92a2.7 2.7 0 0 1 2.22-2.48v2.48h-2.22zm3.12.92h2.13a2.68 2.68 0 0 1-2.13 1.94v-1.94zm0-.92v-2.48a2.7 2.7 0 0 1 2.22 2.48h-2.22zm-.9-3.86a4.05 4.05 0 0 0-3.57 3.86h-2.36a6.44 6.44 0 0 1 5.93-6.26v2.4zm-3.52 4.78a4.06 4.06 0 0 0 3.52 3.33v2.39a6.42 6.42 0 0 1-5.9-5.72h2.38zm4.42 3.33a4.06 4.06 0 0 0 3.51-3.33h2.39a6.42 6.42 0 0 1-5.9 5.72v-2.39zm3.57-4.25a4.05 4.05 0 0 0-3.57-3.86v-2.4a6.44 6.44 0 0 1 5.93 6.26h-2.36zM17.05 7.25v2.61a7.79 7.79 0 0 0-7.28 7.64H7.19a10.4 10.4 0 0 1 9.86-10.25zM7.22 18.42H9.8a7.8 7.8 0 0 0 7.25 7.11v2.6a10.38 10.38 0 0 1-9.83-9.71zm10.73 9.71v-2.6a7.8 7.8 0 0 0 7.25-7.11h2.58a10.38 10.38 0 0 1-9.83 9.71z" fill="#00B589" fill-rule="evenodd"/></svg>