<svg width="35" height="35" viewBox="0 0 35 35" xmlns="http://www.w3.org/2000/svg"><path d="M23.01 11.376H12.062a.737.737 0 0 0-.737.737v10.846a.737.737 0 0 0 .737.726H23.01a.737.737 0 0 0 .737-.726V12.113a.737.737 0 0 0-.737-.727Zm-.737 10.846h-9.485V12.85h9.475v9.373zm11.634-6.16a.982.982 0 0 0 0-1.954h-3.07v-2.865h3.07a.982.982 0 1 0 0-1.954h-3.07v-.9a4.175 4.175 0 0 0-4.154-4.165h-.49V1.082a.982.982 0 1 0-1.965 0v3.142h-2.845V1.082a.982.982 0 1 0-1.954 0v3.142h-2.865V1.082a.982.982 0 1 0-1.955 0v3.142h-2.865V1.082a.982.982 0 1 0-1.954 0v3.142H8.388a4.175 4.175 0 0 0-4.164 4.164v.9H1.082a.982.982 0 1 0 0 1.955h3.142v2.865H1.082a.982.982 0 1 0 0 1.954h3.142v2.865H1.082a.982.982 0 1 0 0 1.965h3.142v2.855H1.082a.982.982 0 1 0 0 1.954h3.142v.982a4.175 4.175 0 0 0 4.164 4.165H9.78v3.07a.982.982 0 1 0 1.954 0v-3.07H14.6v3.07a.982.982 0 1 0 1.955 0v-3.07h2.865v3.07a.982.982 0 0 0 1.954 0v-3.07h2.865v3.07a.982.982 0 0 0 1.944 0v-3.07h.501a4.175 4.175 0 0 0 4.165-4.165v-.982h3.07a.982.982 0 0 0 0-1.954h-3.07v-2.865h3.07a.982.982 0 1 0 0-1.955h-3.07v-2.865h3.07zm-5.013 10.621a2.21 2.21 0 0 1-2.21 2.2H8.387a2.21 2.21 0 0 1-2.2-2.2V8.388a2.21 2.21 0 0 1 2.2-2.2h18.295a2.21 2.21 0 0 1 2.2 2.2v18.295Z" fill="#00b589" fill-rule="evenodd" style="stroke-width:1.02322"/></svg>