<svg xmlns="http://www.w3.org/2000/svg" width="365.482" height="390.981" viewBox="64.178 69.974 365.482 390.981" xml:space="preserve"><path style="stroke:none;stroke-width:1;stroke-dasharray:none;stroke-linecap:butt;stroke-dashoffset:0;stroke-linejoin:miter;stroke-miterlimit:4;fill:#00b589;fill-rule:nonzero;opacity:1" vector-effect="non-scaling-stroke" transform="translate(51.93 70.47)" d="m145.407 248.988-2.775 26.209a7.497 7.497 0 0 0 7.459 8.289h79.301a7.506 7.506 0 0 0 5.576-2.483 7.505 7.505 0 0 0 1.883-5.806l-2.775-26.209h98.777c15.374 0 27.881-12.507 27.881-27.881V27.881C360.733 12.507 348.225 0 332.852 0H40.63C25.256 0 12.749 12.507 12.749 27.881v193.226c0 15.374 12.507 27.881 27.881 27.881h104.777zm75.648 19.499h-62.629l2.064-19.499h58.5l2.065 19.499zM40.63 15h292.222c7.103 0 12.881 5.778 12.881 12.881V197.99H27.749V27.881C27.749 20.778 33.527 15 40.63 15zM27.749 221.107v-8.117h317.983v8.117c0 7.103-5.778 12.881-12.881 12.881H40.63c-7.103 0-12.881-5.778-12.881-12.881zm304.896 112.769a7.5 7.5 0 0 0 .244-7.352l-14.813-28.499a7.5 7.5 0 0 0-6.655-4.041H62.061a7.501 7.501 0 0 0-6.655 4.041l-14.813 28.499a7.502 7.502 0 0 0 6.655 10.959h278.986a7.498 7.498 0 0 0 6.411-3.607zM59.599 322.484l7.016-13.499h240.251l7.017 13.499H59.599zm286.134 28.498h-12c-17.368 0-31.499 14.13-31.499 31.499a7.5 7.5 0 0 0 7.5 7.5h59.997a7.5 7.5 0 0 0 7.5-7.5c.001-17.368-14.129-31.499-31.498-31.499zm-26.693 23.999c2.735-5.337 8.295-8.999 14.693-8.999h12c6.398 0 11.958 3.662 14.694 8.999H319.04z"/><path style="stroke:none;stroke-width:1;stroke-dasharray:none;stroke-linecap:butt;stroke-dashoffset:0;stroke-linejoin:miter;stroke-miterlimit:4;fill:#00b589;fill-rule:nonzero;opacity:1" vector-effect="non-scaling-stroke" transform="matrix(.27 0 0 .27 174.55 114.74)" d="M140.1 364.15c4.396-3.26 108.773-78.91 214.584 0l18.303-24.554c-124.399-92.81-249.965-.912-251.221.015L140.1 364.15zm-1.929-135.39 28.278-28.28 28.277 28.28 21.653-21.653-28.278-28.28 28.278-28.281-21.653-21.653-28.277 28.28-28.278-28.28-21.652 21.653 28.278 28.281-28.278 28.28zm157.103 0 28.277-28.28 28.278 28.28 21.652-21.653-28.278-28.28 28.278-28.281-21.652-21.653-28.278 28.28-28.277-28.28-21.653 21.653 28.278 28.281-28.278 28.28z"/><path style="stroke:none;stroke-width:1;stroke-dasharray:none;stroke-linecap:butt;stroke-dashoffset:0;stroke-linejoin:miter;stroke-miterlimit:4;fill:#00b589;fill-rule:nonzero;opacity:1" vector-effect="non-scaling-stroke" transform="matrix(.27 0 0 .27 174.55 114.74)" d="M69.086 490h351.829C459.001 490 490 459.001 490 420.914V69.086C490 30.991 459.001 0 420.914 0H69.086C30.999 0 0 30.991 0 69.086v351.829C0 459.001 30.999 490 69.086 490zM30.625 69.086c0-21.204 17.256-38.461 38.461-38.461h351.829c21.204 0 38.461 17.257 38.461 38.461v351.829c0 21.204-17.257 38.461-38.461 38.461H69.086c-21.204 0-38.461-17.257-38.461-38.461V69.086z"/></svg>