<svg viewBox="0 0 35 35" fill="#00b589" width="35" height="35" xmlns="http://www.w3.org/2000/svg"><path class="st0" d="M29.474 0H5.429A5.428 5.428 0 0 0 0 5.444v23.917C0 32.472 2.424 35 5.43 35h24.14c3.006 0 5.43-2.528 5.43-5.542V5.444C34.903 2.431 32.48 0 29.474 0Zm3.587 29.458c0 2.042-1.648 3.695-3.587 3.695H5.429c-1.939 0-3.587-1.653-3.587-3.695V5.444c0-2.041 1.648-3.694 3.587-3.694h24.142c1.939 0 3.587 1.653 3.587 3.694v24.014ZM5.623 4.375c-.678 0-1.26.583-1.26 1.361 0 .68.582 1.264 1.26 1.264.679 0 1.358-.583 1.358-1.264 0-.778-.582-1.361-1.358-1.361Zm23.657 0c-.679 0-1.358.583-1.358 1.361 0 .68.582 1.264 1.358 1.264.775 0 1.26-.583 1.26-1.264 0-.778-.582-1.361-1.26-1.361ZM5.623 28c-.678 0-1.26.583-1.26 1.264 0 .68.582 1.361 1.26 1.361.679 0 1.358-.583 1.358-1.361S6.399 28 5.623 28Zm23.657 0c-.679 0-1.358.583-1.358 1.264 0 .68.582 1.361 1.358 1.361.775 0 1.26-.583 1.26-1.361S29.958 28 29.28 28Z" style="stroke-width:.970875"/><path class="st0" d="M12.3 22.1h-1.4c-.2 0-.3-.1-.3-.3v-3.7H7v3.7c0 .2-.1.3-.3.3H5.3c-.2 0-.3-.1-.3-.3v-8.7c0-.2.1-.3.3-.3h1.4c.3 0 .3.1.3.3v3.3h3.6v-3.3c0-.2.1-.3.3-.3h1.4c.3 0 .3.1.3.3v8.7c0 .2 0 .3-.3.3zm1.6-.8v-7.6c0-.6.2-.8.8-.8h2.5c3.1 0 4.2 2.1 4.2 4.6 0 2.4-1 4.7-4.1 4.7h-2.6c-.6-.1-.8-.4-.8-.9Zm3.1-6.8h-1v5.7h1c1.9 0 2.3-1.2 2.3-2.9.1-1.5-.4-2.8-2.3-2.8zm5.5 6.8v-7.6c0-.6.2-.8.8-.8h2.5c3.1 0 4.2 2.1 4.2 4.6 0 2.4-1 4.7-4.1 4.7h-2.6c-.6-.1-.8-.4-.8-.9zm3-6.8h-1v5.7h1.1c1.9 0 2.3-1.2 2.3-2.9 0-1.5-.5-2.8-2.4-2.8z"/></svg>