<svg width="35" height="35" viewBox="0 0 35 35" xmlns="http://www.w3.org/2000/svg"><path d="m19.33 11.972 1.487-1.48a.51.51 0 0 0 .008-.708.485.485 0 0 0-.7-.008l-1.488 1.472a8.424 8.424 0 0 0-11.51.047l-1.83-1.853a.485.485 0 0 0-.691 0 .501.501 0 0 0 0 .708l1.83 1.861a8.726 8.726 0 0 0-.009 11.36l-1.83 1.805a.51.51 0 0 0 .35.867.493.493 0 0 0 .35-.143l1.83-1.814a8.424 8.424 0 0 0 11.272.064l1.718 1.742a.477.477 0 0 0 .7 0 .501.501 0 0 0 0-.708l-1.71-1.742a8.726 8.726 0 0 0 .223-11.47zM9.203 20.618a4.773 4.773 0 0 1-.031-5.83l1.233 1.248a2.999 2.999 0 0 0 .047 3.341zm5.258-1.885-.954-.978 1.066-1.066a2.012 2.012 0 0 1-.112 2.044zm-2.688-2.728a1.91 1.91 0 0 1 2.124-.048l-1.098 1.09zm2.84-.756a2.887 2.887 0 0 0-3.54.04l-1.225-1.233A4.614 4.614 0 0 1 15.86 14zm-3.5 1.503.978.995-.923.922a2.02 2.02 0 0 1-.055-1.917zm4.542 4.614a4.614 4.614 0 0 1-5.728-.008L11.16 20.1a2.895 2.895 0 0 0 3.27.024zm-.494-1.917a3.023 3.023 0 0 0 .136-3.484l1.248-1.241a4.797 4.797 0 0 1-.159 5.958zm2.76-7.493L16.57 13.3a5.584 5.584 0 0 0-7.421.04l-1.32-1.337a7.453 7.453 0 0 1 10.102-.047zm-10.778.771 1.32 1.345a5.79 5.79 0 0 0 .025 7.254l-1.353 1.336a7.716 7.716 0 0 1 .008-9.935zm5.648 5.735.93.94a1.917 1.917 0 0 1-1.845-.033l.43-.43zm-4.916 4.964 1.344-1.352a5.592 5.592 0 0 0 7.143.016l1.329 1.336a7.445 7.445 0 0 1-9.808 0zm9.211-2.036a5.799 5.799 0 0 0 .175-7.374l1.353-1.336a7.724 7.724 0 0 1-.207 10.054Zm15.925-12.6V6.785h-.66V8.79h-1.32V6.785h-.66V8.79h-1.973V11a2.466 2.466 0 0 0 2.45 2.482h.19v7.143a2.88 2.88 0 0 1-2.64 2.88v-.788a1.193 1.193 0 0 0-1.186-1.201h-1.51V8.79a4.001 4.001 0 0 0-3.962-4.017H3.96A4.001 4.001 0 0 0 0 8.79v17.42a4.001 4.001 0 0 0 3.961 4.017H21.74a3.993 3.993 0 0 0 3.897-3.349h1.575a1.193 1.193 0 0 0 1.186-1.2v-.82a4.216 4.216 0 0 0 3.961-4.232v-7.143h.191A2.466 2.466 0 0 0 35 11.001V8.79Zm-8.646 17.42a2.665 2.665 0 0 1-2.641 2.68H3.96a2.665 2.665 0 0 1-2.64-2.68V8.79a2.665 2.665 0 0 1 2.64-2.68h17.78a2.665 2.665 0 0 1 2.64 2.68v17.42Zm2.704-.668h-1.328v-2.68h1.32v2.68zm6.603-14.54a1.13 1.13 0 0 1-1.13 1.137h-1.71A1.13 1.13 0 0 1 29.702 11v-.867h3.962V11z" fill="#00b589" fill-rule="evenodd" style="stroke-width:.795453"/></svg>