<svg width="35" height="35" viewBox="0 0 35 35" xmlns="http://www.w3.org/2000/svg"><path d="M33.922 6.07h.277A.81.81 0 0 0 35 5.26V3.112a.81.81 0 0 0-.81-.81H.81a.81.81 0 0 0-.81.81V5.26a.81.81 0 0 0 .81.81h.268a.497.497 0 0 1 .368.167.525.525 0 0 1 .157.377.516.516 0 0 1-.157.369.497.497 0 0 1-.368.165H.8a.81.81 0 0 0-.801.81v1.917a.81.81 0 0 0 .81.81h.268a.525.525 0 0 1 .368.157.534.534 0 0 1 .157.377.534.534 0 0 1-.525.535H.8a.82.82 0 0 0-.801.82v2.735a.81.81 0 0 0 .81.81h10.795a.81.81 0 0 0 .81-.81v-.728a.525.525 0 0 1 .157-.377.534.534 0 0 1 .746 0 .525.525 0 0 1 .157.377v.728a.81.81 0 0 0 .81.81H34.18a.81.81 0 0 0 .81-.81v-2.736a.82.82 0 0 0-.81-.82h-.267a.534.534 0 0 1-.525-.534.534.534 0 0 1 .157-.377.525.525 0 0 1 .368-.157h.276a.81.81 0 0 0 .802-.81V7.958a.81.81 0 0 0-.81-.81h-.268a.497.497 0 0 1-.368-.166.516.516 0 0 1-.157-.369.525.525 0 0 1 .157-.377.497.497 0 0 1 .368-.166Zm-2.146 5.148a2.146 2.146 0 0 0 .636 1.53 2.174 2.174 0 0 0 .976.57v1.17H15.096a2.146 2.146 0 0 0-.626-1.437 2.174 2.174 0 0 0-3.04 0 2.146 2.146 0 0 0-.617 1.437H1.612v-1.17a2.183 2.183 0 0 0 .976-.57 2.146 2.146 0 0 0 .636-1.53 2.174 2.174 0 0 0-.636-1.529 2.082 2.082 0 0 0-.976-.561v-.424a2.082 2.082 0 0 0 .976-.562 2.183 2.183 0 0 0 0-3.067 2.247 2.247 0 0 0-.976-.562v-.58h31.776v.58a2.247 2.247 0 0 0-.976.562 2.183 2.183 0 0 0 0 3.067 2.082 2.082 0 0 0 .976.562v.424a2.082 2.082 0 0 0-.976.561 2.174 2.174 0 0 0-.636 1.53ZM6.447 13.825a.534.534 0 1 0-1.068 0v1.253a.534.534 0 1 0 1.068 0zm2.966 0a.534.534 0 1 0-1.068 0v1.253a.534.534 0 1 0 1.068 0zm8.88 0a.534.534 0 1 0-1.07 0v1.253a.534.534 0 1 0 1.07 0zm2.965 0a.534.534 0 1 0-1.069 0v1.253a.534.534 0 1 0 1.069 0zm2.956 0a.534.534 0 1 0-1.068 0v1.253a.534.534 0 1 0 1.068 0zm2.966-1.455a.534.534 0 1 0-1.068 0v1.252a.534.534 0 1 0 1.068 0zm2.966 0a.539.539 0 1 0-1.078 0v1.252a.539.539 0 1 0 1.078 0zM6.236 5.213h3.25a.507.507 0 0 1 .517.498v4.817a.507.507 0 0 1-.516.497h-3.26a.507.507 0 0 1-.507-.497V5.71a.507.507 0 0 1 .506-.498ZM8.98 6.217H6.742v3.804h2.23V6.217Zm3.684-1.004h3.261a.507.507 0 0 1 .507.498v4.817a.507.507 0 0 1-.507.497h-3.26a.507.507 0 0 1-.516-.497V5.71a.507.507 0 0 1 .506-.498zm2.745 1.004h-2.238v3.804H15.4V6.217Zm3.684-1.004h3.26a.507.507 0 0 1 .508.498v4.817a.507.507 0 0 1-.507.497h-3.26a.507.507 0 0 1-.516-.497V5.71a.507.507 0 0 1 .506-.498zm2.745 1.004H19.61v3.804h2.22V6.217Zm3.684-1.004h3.252a.507.507 0 0 1 .515.498v4.817a.507.507 0 0 1-.515.497h-3.26a.507.507 0 0 1-.517-.497V5.71a.507.507 0 0 1 .516-.498zm2.745 1.004H26.03v3.804h2.238zm5.655 16.432h.277a.81.81 0 0 0 .801-.81v-2.147a.81.81 0 0 0-.81-.81H.81a.81.81 0 0 0-.81.81v2.146a.81.81 0 0 0 .81.81h.268a.497.497 0 0 1 .368.166.525.525 0 0 1 .157.378.553.553 0 0 1-.157.378.525.525 0 0 1-.368.156H.8a.81.81 0 0 0-.801.81v1.917a.81.81 0 0 0 .81.81h.268a.525.525 0 0 1 .368.157.534.534 0 0 1 .157.377.534.534 0 0 1-.525.535H.8a.82.82 0 0 0-.801.82v2.735a.81.81 0 0 0 .81.81h10.795a.81.81 0 0 0 .81-.81v-.728a.525.525 0 0 1 .157-.377.534.534 0 0 1 .746 0 .525.525 0 0 1 .157.377v.728a.81.81 0 0 0 .81.81H34.18a.81.81 0 0 0 .81-.81V29.15a.82.82 0 0 0-.81-.82h-.267a.534.534 0 0 1-.525-.534.534.534 0 0 1 .157-.377.525.525 0 0 1 .368-.157h.276a.81.81 0 0 0 .802-.81v-1.916a.81.81 0 0 0-.81-.81h-.268a.525.525 0 0 1-.368-.157.553.553 0 0 1-.157-.378.525.525 0 0 1 .157-.378.497.497 0 0 1 .368-.165zm-2.146 5.148a2.146 2.146 0 0 0 .636 1.53 2.174 2.174 0 0 0 .976.57v1.17H15.096a2.146 2.146 0 0 0-.626-1.437 2.174 2.174 0 0 0-3.04 0 2.146 2.146 0 0 0-.617 1.437H1.612v-1.17a2.183 2.183 0 0 0 .976-.57 2.146 2.146 0 0 0 .636-1.53 2.174 2.174 0 0 0-.636-1.529 2.082 2.082 0 0 0-.976-.561v-.424a2.082 2.082 0 0 0 .976-.562 2.183 2.183 0 0 0 0-3.067 2.247 2.247 0 0 0-.976-.562v-.58h31.776v.58a2.247 2.247 0 0 0-.976.562 2.183 2.183 0 0 0 0 3.067 2.082 2.082 0 0 0 .976.562v.424a2.082 2.082 0 0 0-.976.561 2.174 2.174 0 0 0-.636 1.53zM6.447 30.404a.534.534 0 1 0-1.068 0v1.253a.534.534 0 1 0 1.068 0zm2.966 0a.534.534 0 1 0-1.068 0v1.253a.534.534 0 1 0 1.068 0zm8.88 0a.534.534 0 1 0-1.07 0v1.253a.534.534 0 1 0 1.07 0zm2.965 0a.534.534 0 1 0-1.069 0v1.253a.534.534 0 1 0 1.069 0zm2.956 0a.534.534 0 1 0-1.068 0v1.253a.534.534 0 1 0 1.068 0zm2.966-1.455a.534.534 0 1 0-1.068 0V30.2a.534.534 0 1 0 1.068 0zm2.966 0a.539.539 0 1 0-1.078 0V30.2a.539.539 0 1 0 1.078 0zm-23.91-7.157h3.25a.507.507 0 0 1 .517.497v4.818a.507.507 0 0 1-.516.497h-3.26a.507.507 0 0 1-.507-.497v-4.818a.507.507 0 0 1 .506-.497zm2.744 1.004H6.742V26.6h2.23v-3.804Zm3.684-1.004h3.261a.507.507 0 0 1 .507.497v4.818a.507.507 0 0 1-.507.497h-3.26a.507.507 0 0 1-.516-.497v-4.818a.507.507 0 0 1 .506-.497zm2.745 1.004h-2.238V26.6H15.4v-3.804zm3.684-1.004h3.26a.507.507 0 0 1 .508.497v4.818a.507.507 0 0 1-.507.497h-3.26a.507.507 0 0 1-.516-.497v-4.818a.507.507 0 0 1 .506-.497zm2.745 1.004H19.61V26.6h2.22v-3.804zm3.684-1.004h3.252a.507.507 0 0 1 .515.497v4.818a.507.507 0 0 1-.515.497h-3.26a.507.507 0 0 1-.517-.497v-4.818a.507.507 0 0 1 .516-.497zm2.745 1.004H26.03V26.6h2.238z" style="fill:#00b589;fill-rule:evenodd;stroke-width:.921053"/></svg>