<svg xmlns="http://www.w3.org/2000/svg" width="36" height="36" viewBox="0 0 36 36"><path d="M30.45 0H5.55A5.64 5.64 0 0 0 0 5.68v24.64A5.64 5.64 0 0 0 5.55 36h24.9A5.64 5.64 0 0 0 36 30.32V5.68A5.64 5.64 0 0 0 30.45 0zm3.7 30.32a3.75 3.75 0 0 1-3.7 3.79H5.55a3.75 3.75 0 0 1-3.7-3.79V5.68a3.75 3.75 0 0 1 3.7-3.79h24.9a3.75 3.75 0 0 1 3.7 3.79v24.64zM9.65 13.07a7.18 7.18 0 0 1 2.92.6c.21.11.22.16.13.42l-.34.98c-.09.25-.14.25-.35.19a8.77 8.77 0 0 0-2.36-.41c-.77 0-1.04.31-1.04.71 0 .46.37.73 1.52 1.19 1.78.69 3.04 1.32 3.04 3.02 0 1.83-1.37 2.73-3.4 2.73a7.04 7.04 0 0 1-3.46-.82c-.14-.09-.16-.17-.07-.39l.44-1.05c.1-.2.17-.23.36-.14a7.23 7.23 0 0 0 2.59.61c1.1 0 1.42-.44 1.42-.91 0-.52-.34-.82-1.45-1.24-1.84-.69-3.05-1.39-3.05-2.84s.97-2.65 3.1-2.65zm7.82 0a7.18 7.18 0 0 1 2.92.6c.21.11.23.16.14.42l-.34.98c-.1.25-.15.25-.36.19a8.78 8.78 0 0 0-2.36-.41c-.77 0-1.04.31-1.04.71 0 .46.38.73 1.53 1.19 1.77.69 3.03 1.32 3.03 3.02 0 1.83-1.36 2.73-3.4 2.73a7.04 7.04 0 0 1-3.45-.82c-.14-.09-.17-.17-.08-.39l.44-1.05c.1-.2.17-.23.37-.14a7.23 7.23 0 0 0 2.58.61c1.1 0 1.42-.44 1.42-.91 0-.52-.34-.82-1.45-1.24-1.83-.69-3.05-1.39-3.05-2.84s.98-2.65 3.1-2.65zm4.9 8.49v-7.54a.65.65 0 0 1 .78-.8h2.44c3.06 0 4.17 2.07 4.17 4.52 0 2.4-.95 4.62-4.03 4.62h-2.58a.65.65 0 0 1-.78-.8zm3-6.61h-1.02v5.66h1.05c1.82 0 2.3-1.2 2.3-2.87.01-1.59-.48-2.79-2.34-2.79zM7.2 5.85A1.35 1.35 0 1 1 5.85 4.5 1.35 1.35 0 0 1 7.2 5.85zm24.3 0a1.35 1.35 0 1 1-1.35-1.35 1.35 1.35 0 0 1 1.35 1.35zM7.2 30.15a1.35 1.35 0 1 1-1.35-1.35 1.35 1.35 0 0 1 1.35 1.35zm24.3 0a1.35 1.35 0 1 1-1.35-1.35 1.35 1.35 0 0 1 1.35 1.35z" fill="#00B589" fill-rule="evenodd"/></svg>