<svg xmlns="http://www.w3.org/2000/svg" width="34" height="34" viewBox="0 0 34 34"><path d="M22.39 11.02h-10.7a.72.72 0 0 0-.72.72v10.6a.72.72 0 0 0 .72.71h10.7a.72.72 0 0 0 .72-.71v-10.6a.72.72 0 0 0-.72-.71zm-.72 10.6H12.4v-9.16h9.26v9.16zm11.37-6.02a.96.96 0 0 0 0-1.91h-3v-2.8h3a.96.96 0 1 0 0-1.91h-3V8.1a4.08 4.08 0 0 0-4.06-4.07h-.48V.96a.96.96 0 1 0-1.92 0v3.07H20.8V.96a.96.96 0 1 0-1.91 0v3.07h-2.8V.96a.96.96 0 1 0-1.91 0v3.07h-2.8V.96a.96.96 0 1 0-1.91 0v3.07H8.1A4.08 4.08 0 0 0 4.03 8.1v.88H.96a.96.96 0 1 0 0 1.91h3.07v2.8H.96a.96.96 0 1 0 0 1.91h3.07v2.8H.96a.96.96 0 1 0 0 1.92h3.07v2.79H.96a.96.96 0 1 0 0 1.91h3.07v.96a4.08 4.08 0 0 0 4.07 4.07h1.36v3a.96.96 0 1 0 1.91 0v-3h2.8v3a.96.96 0 1 0 1.91 0v-3h2.8v3a.96.96 0 0 0 1.91 0v-3h2.8v3a.96.96 0 0 0 1.9 0v-3h.49a4.08 4.08 0 0 0 4.07-4.07v-.96h3a.96.96 0 0 0 0-1.91h-3v-2.8h3a.96.96 0 1 0 0-1.91h-3v-2.8h3zm-4.9 10.38a2.16 2.16 0 0 1-2.16 2.15H8.1a2.16 2.16 0 0 1-2.15-2.15V8.1A2.16 2.16 0 0 1 8.1 5.95h17.88a2.16 2.16 0 0 1 2.15 2.15v17.88z" fill="#00B589" fill-rule="evenodd"/></svg>