<svg width="35" height="35" viewBox="0 0 35 35" xmlns="http://www.w3.org/2000/svg"><path d="M29.384 18.68h-9.706a.69.69 0 1 0 0 1.382h9.706a.69.69 0 1 0 0-1.381zm0 2.773h-9.706a.69.69 0 1 0 0 1.381h9.706a.69.69 0 1 0 0-1.381zm0-8.325h-9.706a.7.7 0 0 0 0 1.39h9.706a.7.7 0 0 0 0-1.39zm0 2.772h-9.706a.7.7 0 0 0 0 1.39h9.706a.7.7 0 0 0 0-1.39zm-12.496 1.39a.7.7 0 0 0 0-1.39h-.7v-.691a.69.69 0 0 0-.682-.691h-.7v-.7a.7.7 0 0 0-1.381 0v.7h-1.4v-.7a.7.7 0 0 0-1.381 0v.7h-.69a.69.69 0 0 0-.7.69v.692H8.58a.7.7 0 0 0 0 1.39h.7v1.39h-.7a.69.69 0 1 0 0 1.382h.7v.691a.7.7 0 0 0 .69.7h.7v.69a.7.7 0 0 0 1.382 0v-.69h1.39v.69a.7.7 0 0 0 1.382 0v-.69h.7a.7.7 0 0 0 .69-.7v-.69h.7a.69.69 0 1 0 0-1.382h-.7v-1.39h.7zm-2.081 2.772h-4.163V15.9h4.163zM33.24 11.38v13.99H5.257V11.38h27.984m.385-1.75H4.872a1.364 1.364 0 0 0-1.364 1.365v14.761a1.364 1.364 0 0 0 1.364 1.364h28.754a1.364 1.364 0 0 0 1.364-1.364V10.994a1.364 1.364 0 0 0-1.364-1.364ZM20.123 27.12v1.75H9.63v-1.75h10.493m.525-1.749H9.105a1.224 1.224 0 0 0-1.224 1.233v2.781a1.224 1.224 0 0 0 1.224 1.233h11.543a1.224 1.224 0 0 0 1.224-1.233v-2.78a1.224 1.224 0 0 0-1.224-1.234Zm9.97 1.75v1.748H25.37V27.12h5.247m.525-1.749h-6.296a1.224 1.224 0 0 0-1.225 1.233v2.781a1.224 1.224 0 0 0 1.225 1.233h6.296a1.224 1.224 0 0 0 1.224-1.233v-2.78a1.224 1.224 0 0 0-1.224-1.234zM3.508 13.128v3.498H1.76v-3.498h1.75m.524-1.75h-2.8A1.224 1.224 0 0 0 .01 12.613v4.53a1.224 1.224 0 0 0 1.224 1.232h2.799a1.224 1.224 0 0 0 1.224-1.233v-4.53a1.224 1.224 0 0 0-1.224-1.232Zm-.525 9.62v3.498H1.76v-3.498h1.75m.524-1.749h-2.8A1.224 1.224 0 0 0 .01 20.482v4.53a1.224 1.224 0 0 0 1.224 1.233h2.799a1.224 1.224 0 0 0 1.224-1.233v-4.53a1.224 1.224 0 0 0-1.224-1.233Zm-.525 11.368h1.75V4.383h-1.75Zm.875-24.485H.885v-1.75h3.498Z" fill="#00b589" fill-rule="evenodd" style="stroke-width:.874493"/></svg>