<svg xmlns="http://www.w3.org/2000/svg" width="35" height="35" viewBox="0 0 35 35"><path d="M32.08 0H2.92A2.94 2.94 0 0 0 0 2.92v29.16A2.94 2.94 0 0 0 2.92 35h29.16A2.94 2.94 0 0 0 35 32.08V2.92A2.94 2.94 0 0 0 32.08 0zm.98 19.44h-3.9v1.95h3.9v.97h-3.9v1.95h3.9v.97h-3.9v1.94h3.9v4.86a.97.97 0 0 1-.98.98H2.92a.97.97 0 0 1-.98-.98V2.92a.97.97 0 0 1 .98-.98h29.16a.97.97 0 0 1 .98.98v16.52zM4.86 3.89a.97.97 0 1 1-.97.97.97.97 0 0 1 .97-.97zm25.28 0a.97.97 0 1 1-.97.97.97.97 0 0 1 .97-.97zm0 25.28a.97.97 0 1 1-.97.97.97.97 0 0 1 .97-.97zm-25.28 0a.97.97 0 1 1-.97.97.97.97 0 0 1 .97-.97zm2.92-14.59h6.8a.96.96 0 0 0 .98-.97v-6.8a.96.96 0 0 0-.98-.98h-6.8a.96.96 0 0 0-.97.98v6.8a.96.96 0 0 0 .97.97zm.97-6.8h4.86v4.86H8.75V7.78zM2.92 19.44v7.78H17.5V16.53H2.92v2.91zm1.94-.97h10.7v.97H4.86v-.97zm0 2.92h10.7v.97H4.86v-.97zm0 2.92h10.7v.97H4.86v-.97zm17.5-20.42h-2.91v14.58h7.77V3.89h-4.86zm0 12.64h-.97V5.83h.97v10.7zm2.92 0h-.97V5.83h.97v10.7zm-3.39 2.91a2.46 2.46 0 0 0-2.44 2.45 2.45 2.45 0 1 0 4.9 0 2.46 2.46 0 0 0-2.46-2.45zm0 2.92a.5.5 0 1 1 .51-.5.54.54 0 0 1-.5.5zm0 2.92a2.46 2.46 0 0 0-2.44 2.45 2.45 2.45 0 1 0 4.9 0 2.46 2.46 0 0 0-2.46-2.45zm0 2.91a.51.51 0 0 1-.5-.5.5.5 0 1 1 1.02 0 .54.54 0 0 1-.52.5z" fill="#00B589" fill-rule="evenodd"/></svg>